<?xml version="1.0" encoding="UTF-8"?>
<svg width="300px" height="300px" viewBox="0 0 300 300" version="1.1" xmlns="http://www.w3.org/2000/svg" xmlns:xlink="http://www.w3.org/1999/xlink">
    <!-- Generator: Sketch 40.1 (33804) - http://www.bohemiancoding.com/sketch -->
    <title>Icon</title>
    <desc>Created with Sketch.</desc>
    <defs>
        <circle id="path-1" cx="150" cy="150" r="150"></circle>
        <mask id="mask-2" maskContentUnits="userSpaceOnUse" maskUnits="objectBoundingBox" x="0" y="0" width="300" height="300" fill="white">
            <use xlink:href="#path-1"></use>
        </mask>
    </defs>
    <g id="Page-1" stroke="none" stroke-width="1" fill="none" fill-rule="evenodd">
        <g id="Icon">
            <use id="Oval" stroke="#C09F80" mask="url(#mask-2)" stroke-width="32" xlink:href="#path-1"></use>
            <g id="GitHub_c09f80_-1" transform="translate(59.000000, 59.000000)" fill="#C09F80">
                <path d="M91.492375,0 C40.969125,0 0,41.9997948 0,93.8097036 C0,135.246687 26.21475,170.406761 62.578375,182.812061 C67.153375,183.671911 68.82325,180.779686 68.82325,178.293936 C68.82325,176.066142 68.747,170.164439 68.70125,162.339799 C43.249,168.006996 37.881,149.762529 37.881,149.762529 C33.71775,138.928411 27.7245,136.044003 27.7245,136.044003 C19.41325,130.220469 28.34975,130.345539 28.34975,130.345539 C37.53025,131.009969 42.3645,140.01495 42.3645,140.01495 C50.52325,154.351005 63.783125,150.208088 68.991,147.808323 C69.822125,141.750285 72.185875,137.615185 74.80125,135.270138 C54.480625,132.90164 33.123,124.858128 33.123,88.908555 C33.123,78.6685157 36.6915,70.2966973 42.539875,63.7383821 C41.602,61.3620676 38.4605,51.8255425 43.439625,38.9121494 C43.439625,38.9121494 51.125625,36.3873153 68.602125,48.5268428 C75.89925,46.4475676 83.730125,45.40793 91.507625,45.3688459 C99.2775,45.40793 107.108375,46.4475676 114.413125,48.5268428 C131.882,36.3873153 139.55275,38.9121494 139.55275,38.9121494 C144.547125,51.8255425 141.405625,61.3620676 140.460125,63.7383821 C146.32375,70.2966973 149.86175,78.6685157 149.86175,88.908555 C149.86175,124.944113 128.466,132.870373 108.084375,135.191969 C111.37075,138.084194 114.29875,143.813926 114.29875,152.560952 C114.29875,165.099138 114.184375,175.214108 114.184375,178.293936 C114.184375,180.803137 115.831375,183.718812 120.475,182.804244 C156.808125,170.367677 183,135.23887 183,93.8097036 C183,41.9997948 142.030875,0 91.492375,0 L91.492375,0 Z" id="Shape"></path>
            </g>
        </g>
    </g>
</svg>