<?xml version="1.0" encoding="UTF-8"?>
<svg width="300px" height="300px" viewBox="0 0 300 300" version="1.1" xmlns="http://www.w3.org/2000/svg" xmlns:xlink="http://www.w3.org/1999/xlink">
    <!-- Generator: Sketch 40.1 (33804) - http://www.bohemiancoding.com/sketch -->
    <title>Icon</title>
    <desc>Created with Sketch.</desc>
    <defs>
        <circle id="path-1" cx="150" cy="150" r="150"></circle>
        <mask id="mask-2" maskContentUnits="userSpaceOnUse" maskUnits="objectBoundingBox" x="0" y="0" width="300" height="300" fill="white">
            <use xlink:href="#path-1"></use>
        </mask>
    </defs>
    <g id="Page-2" stroke="none" stroke-width="1" fill="none" fill-rule="evenodd">
        <g id="Icon">
            <use id="Oval" stroke="#C09F80" mask="url(#mask-2)" stroke-width="32" xlink:href="#path-1"></use>
            <g id="LinkedIn_c09f80_-1" transform="translate(81.000000, 81.000000)" fill="#C09F80">
                <path d="M125.1,0 L13.9,0 C6.255,0 0,6.255 0,13.9 L0,125.1 C0,132.745 6.255,139 13.9,139 L125.1,139 C132.745,139 139,132.745 139,125.1 L139,13.9 C139,6.255 132.745,0 125.1,0 L125.1,0 Z M42.395,111.2 L20.85,111.2 L20.85,51.43 L42.395,51.43 L42.395,111.2 L42.395,111.2 Z M31.275,44.48 L31.275,44.48 C25.02,44.48 20.85,40.31 20.85,34.75 C20.85,29.19 25.02,25.02 31.97,25.02 C38.225,25.02 42.395,29.19 42.395,34.75 C42.395,40.31 38.225,44.48 31.275,44.48 L31.275,44.48 Z M118.15,111.2 L96.605,111.2 L96.605,78.535 C96.605,69.5 91.045,67.415 88.96,67.415 C86.875,67.415 79.925,68.805 79.925,78.535 L79.925,111.2 L58.38,111.2 L58.38,51.43 L79.925,51.43 L79.925,59.77 C82.705,54.905 88.265,51.43 98.69,51.43 C109.115,51.43 117.455,59.77 117.455,78.535 L117.455,111.2 L118.15,111.2 Z" id="Shape"></path>
            </g>
        </g>
    </g>
</svg>