<?xml version="1.0" encoding="UTF-8"?>
<svg width="300px" height="300px" viewBox="0 0 300 300" version="1.1" xmlns="http://www.w3.org/2000/svg" xmlns:xlink="http://www.w3.org/1999/xlink">
    <!-- Generator: Sketch 40.1 (33804) - http://www.bohemiancoding.com/sketch -->
    <title>Icon</title>
    <desc>Created with Sketch.</desc>
    <defs>
        <circle id="path-1" cx="150" cy="150" r="150"></circle>
        <mask id="mask-2" maskContentUnits="userSpaceOnUse" maskUnits="objectBoundingBox" x="0" y="0" width="300" height="300" fill="white">
            <use xlink:href="#path-1"></use>
        </mask>
    </defs>
    <g id="Page-3" stroke="none" stroke-width="1" fill="none" fill-rule="evenodd">
        <g id="Icon">
            <use id="Oval" stroke="#C09F80" mask="url(#mask-2)" stroke-width="32" xlink:href="#path-1"></use>
            <g id="Page-Overview-2_c09f80_-1" transform="translate(83.000000, 83.000000)" fill="#C09F80">
                <path d="M12.2727273,0 C5.55798252,0 0,4.70290834 0,10.3846154 L0,124.615385 C0,130.297093 5.55798252,135 12.2727273,135 L122.727273,135 C129.442019,135 135,130.297093 135,124.615385 L135,10.3846154 C135,4.70290834 129.442019,0 122.727273,0 L12.2727273,0 L12.2727273,0 Z M12.2727273,10.3846154 L122.727273,10.3846154 L122.727273,124.615385 L12.2727273,124.615385 L12.2727273,10.3846154 L12.2727273,10.3846154 Z M30.6818182,25.9615385 C27.3006818,25.9615385 24.5454545,28.2928846 24.5454545,31.1538462 L24.5454545,36.3461538 C24.5454545,39.2071154 27.3006818,41.5384615 30.6818182,41.5384615 L104.12642,41.5384615 C107.507557,41.5384615 110.262784,39.2071154 110.262784,36.3461538 L110.262784,31.1538462 C110.262784,28.2928846 107.507557,25.9615385 104.12642,25.9615385 L30.6818182,25.9615385 L30.6818182,25.9615385 Z M24.5454545,57.1153846 L24.5454545,67.5 L85.9090909,67.5 L85.9090909,57.1153846 L24.5454545,57.1153846 L24.5454545,57.1153846 Z M98.1818182,57.1153846 L98.1818182,67.5 L110.454545,67.5 L110.454545,57.1153846 L98.1818182,57.1153846 L98.1818182,57.1153846 Z M24.5454545,77.8846154 L24.5454545,88.2692308 L61.3636364,88.2692308 L61.3636364,77.8846154 L24.5454545,77.8846154 L24.5454545,77.8846154 Z M98.1818182,77.8846154 L98.1818182,88.2692308 L110.454545,88.2692308 L110.454545,77.8846154 L98.1818182,77.8846154 L98.1818182,77.8846154 Z M24.5454545,98.6538462 L24.5454545,109.038462 L73.6363636,109.038462 L73.6363636,98.6538462 L24.5454545,98.6538462 L24.5454545,98.6538462 Z M98.1818182,98.6538462 L98.1818182,109.038462 L110.454545,109.038462 L110.454545,98.6538462 L98.1818182,98.6538462 L98.1818182,98.6538462 Z" id="Shape"></path>
            </g>
        </g>
    </g>
</svg>